HIERARCHY
ROOT Hips
{
	OFFSET 0.00000 0.00000 0.00000
	CHANNELS 6 Xposition Yposition Zposition Zrotation Yrotation Xrotation 
	JOINT LHipJoint
	{
		OFFSET 0 0 0
		CHANNELS 3 Zrotation Yrotation Xrotation
		JOINT LeftUpLeg
		{
			OFFSET 1.61024 -1.73873 0.75100
			CHANNELS 3 Zrotation Yrotation Xrotation
			JOINT LeftLeg
			{
				OFFSET 2.29819 -6.31424 0.00000
				CHANNELS 3 Zrotation Yrotation Xrotation
				JOINT LeftFoot
				{
					OFFSET 2.76618 -7.60002 0.00000
					CHANNELS 3 Zrotation Yrotation Xrotation
					JOINT LeftToeBase
					{
						OFFSET 0.16838 -0.46263 2.02361
						CHANNELS 3 Zrotation Yrotation Xrotation
						End Site
						{
							OFFSET 0.00000 -0.00000 1.04662
						}
					}
				}
			}
		}
	}
	JOINT RHipJoint
	{
		OFFSET 0 0 0
		CHANNELS 3 Zrotation Yrotation Xrotation
		JOINT RightUpLeg
		{
			OFFSET -1.46153 -1.73873 0.75100
			CHANNELS 3 Zrotation Yrotation Xrotation
			JOINT RightLeg
			{
				OFFSET -2.38373 -6.54924 0.00000
				CHANNELS 3 Zrotation Yrotation Xrotation
				JOINT RightFoot
				{
					OFFSET -2.80314 -7.70157 0.00000
					CHANNELS 3 Zrotation Yrotation Xrotation
					JOINT RightToeBase
					{
						OFFSET -0.16142 -0.44349 2.02101
						CHANNELS 3 Zrotation Yrotation Xrotation
						End Site
						{
							OFFSET -0.00000 -0.00000 1.04381
						}
					}
				}
			}
		}
	}
	JOINT LowerBack
	{
		OFFSET 0 0 0
		CHANNELS 3 Zrotation Yrotation Xrotation
		JOINT Spine
		{
			OFFSET -0.01629 1.66985 0.14750
			CHANNELS 3 Zrotation Yrotation Xrotation
			JOINT Spine1
			{
				OFFSET 0.02086 1.62378 0.20980
				CHANNELS 3 Zrotation Yrotation Xrotation
				JOINT Neck
				{
					OFFSET 0 0 0
					CHANNELS 3 Zrotation Yrotation Xrotation
					JOINT Neck1
					{
						OFFSET -0.05690 1.78719 0.08702
						CHANNELS 3 Zrotation Yrotation Xrotation
						JOINT Head
						{
							OFFSET 0.16035 1.73871 -0.38470
							CHANNELS 3 Zrotation Yrotation Xrotation
							End Site
							{
								OFFSET 0.05645 1.80914 -0.14081
							}
						}
					}
				}
				JOINT LeftShoulder
				{
					OFFSET 0 0 0
					CHANNELS 3 Zrotation Yrotation Xrotation
					JOINT LeftArm
					{
						OFFSET 2.83089 1.66494 -0.46008
						CHANNELS 3 Zrotation Yrotation Xrotation
						JOINT LeftForeArm
						{
							OFFSET 5.54893 -0.00000 -0.00000
							CHANNELS 3 Zrotation Yrotation Xrotation
							JOINT LeftHand
							{
								OFFSET 3.02898 -0.00000 -0.00000
								CHANNELS 3 Zrotation Yrotation Xrotation
								JOINT LeftFingerBase
								{
									OFFSET 0 0 0
									CHANNELS 3 Zrotation Yrotation Xrotation
									JOINT LeftHandIndex1
									{
										OFFSET 0.64095 -0.00000 -0.00000
										CHANNELS 3 Zrotation Yrotation Xrotation
										End Site
										{
											OFFSET 0.51675 -0.00000 -0.00000
										}
									}
								}
								JOINT LThumb
								{
									OFFSET 0 0 0
									CHANNELS 3 Zrotation Yrotation Xrotation
									End Site
									{
										OFFSET 0.52464 -0.00000 0.52464
									}
								}
							}
						}
					}
				}
				JOINT RightShoulder
				{
					OFFSET 0 0 0
					CHANNELS 3 Zrotation Yrotation Xrotation
					JOINT RightArm
					{
						OFFSET -2.84442 1.45761 -0.18088
						CHANNELS 3 Zrotation Yrotation Xrotation
						JOINT RightForeArm
						{
							OFFSET -5.35190 -0.00000 -0.00000
							CHANNELS 3 Zrotation Yrotation Xrotation
							JOINT RightHand
							{
								OFFSET -3.02531 -0.00000 -0.00000
								CHANNELS 3 Zrotation Yrotation Xrotation
								JOINT RightFingerBase
								{
									OFFSET 0 0 0
									CHANNELS 3 Zrotation Yrotation Xrotation
									JOINT RightHandIndex1
									{
										OFFSET -0.78389 -0.00000 -0.00000
										CHANNELS 3 Zrotation Yrotation Xrotation
										End Site
										{
											OFFSET -0.63199 -0.00000 -0.00000
										}
									}
								}
								JOINT RThumb
								{
									OFFSET 0 0 0
									CHANNELS 3 Zrotation Yrotation Xrotation
									End Site
									{
										OFFSET -0.64164 -0.00000 0.64164
									}
								}
							}
						}
					}
				}
			}
		}
	}
}
MOTION
Frames: 11
Frame Time: .0083333
-0.7182 17.8712 0.4215 -221.1580 92.4408 -210.7030 0.0000 0.0000 0.0000 -16.4000 -1.3848 -6.3133 0.0358 1.2212 3.3577 -0.0149 6.8312 -9.3738 0.8802 -5.9811 -16.7296 0.0000 0.0000 0.0000 18.6990 13.4845 -10.3595 -0.7147 -5.4028 15.0610 0.1763 -13.2027 -16.4306 -0.6927 5.3206 -14.8253 -0.6559 -1.9069 -7.0539 2.2652 -1.7935 -11.7132 2.7298 -0.4598 -8.3121 -3.1286 -0.3393 -16.9990 7.0598 -1.2055 28.9376 3.1031 0.2820 12.4704 0.0000 -0.0000 0.0000 -74.5406 -30.4750 86.5686 37.2665 -46.3644 -16.4327 -0.0000 -0.0000 11.0276 1.9352 24.5088 0.8030 -7.1250 0.0000 -0.0000 -27.9044 52.2511 -5.3203 0.0000 -0.0000 0.0000 75.4502 33.9660 94.8039 -39.3576 47.6847 -17.9628 0.0000 0.0000 9.6660 3.6050 6.6097 0.4155 7.1250 -0.0000 -0.0000 21.9383 -23.3611 12.3414
-0.7150 17.8713 0.4242 -222.2250 92.3977 -211.7700 0.0000 0.0000 0.0000 -16.4102 -1.4818 -6.3985 0.0401 1.2924 3.5538 -0.0114 6.8245 -9.4513 0.8869 -6.0030 -16.7932 0.0000 0.0000 0.0000 18.7242 13.4420 -10.3352 -0.7118 -5.3920 15.0300 0.1857 -13.2727 -16.4084 -0.7107 5.3878 -15.0180 -0.6483 -1.8888 -7.0059 2.2427 -1.7693 -11.7291 2.7034 -0.4482 -8.3596 -3.0849 -0.3666 -16.9415 6.9518 -1.2251 28.8861 3.0478 0.2620 12.4379 0.0000 -0.0000 0.0000 -74.3179 -30.4352 86.1573 37.8631 -46.7516 -16.8658 -0.0000 -0.0000 10.7021 1.8181 24.3614 0.7502 -7.1250 0.0000 -0.0000 -27.9219 52.1013 -5.2166 0.0000 -0.0000 0.0000 75.1596 33.9687 94.3749 -39.9677 48.0507 -18.4152 0.0000 0.0000 9.2533 3.1591 6.7736 0.3730 7.1250 -0.0000 -0.0000 21.6050 -23.2147 12.2036
-0.7164 17.8716 0.4289 -224.4760 92.3390 -213.9910 0.0000 0.0000 0.0000 -16.3625 -1.6148 -6.4838 0.0424 1.3282 3.6524 -0.0145 6.8649 -9.4333 0.9420 -6.1816 -17.3124 0.0000 0.0000 0.0000 18.7705 13.5174 -10.3212 -0.7103 -5.3863 15.0136 0.1924 -13.3670 -16.4669 -0.7007 5.3507 -14.9115 -0.6219 -1.8970 -6.9336 2.2098 -1.7799 -11.7643 2.6566 -0.4551 -8.4419 -3.0131 -0.3727 -16.8061 6.9154 -1.2429 28.7790 3.0126 0.2541 12.3672 0.0000 0.0000 0.0000 -73.9742 -30.3386 85.6755 38.5414 -47.1816 -17.3616 -0.0000 -0.0000 10.2440 1.4568 24.3794 0.6014 -7.1250 0.0000 -0.0000 -28.2670 52.0565 -5.2575 0.0000 0.0000 0.0000 74.9853 33.9389 93.7144 -40.4984 48.3624 -18.8109 0.0000 0.0000 8.9328 3.4040 7.4472 0.4417 7.1250 -0.0000 -0.0000 21.6643 -22.5847 12.5842
-0.7155 17.8714 0.4335 -226.3240 92.3135 -215.8260 0.0000 0.0000 0.0000 -16.2995 -1.6861 -6.5050 0.0432 1.3407 3.6867 -0.0153 6.8699 -9.4199 0.9487 -6.2030 -17.3744 0.0000 0.0000 0.0000 18.8323 13.5088 -10.3276 -0.7104 -5.3868 15.0151 0.1899 -13.3879 -16.5377 -0.6882 5.3037 -14.7768 -0.6496 -1.9168 -6.9429 2.2389 -1.8053 -11.7486 2.7024 -0.4647 -8.4159 -3.0455 -0.3574 -16.7426 6.9274 -1.2134 28.6995 3.0234 0.2628 12.3202 -0.0000 0.0000 0.0000 -73.6896 -30.2540 85.0348 39.2381 -47.6119 -17.8744 -0.0000 -0.0000 9.6595 1.1331 24.3094 0.4665 -7.1250 0.0000 -0.0000 -28.5219 51.9406 -5.2265 -0.0000 0.0000 0.0000 74.7424 34.0023 93.0826 -41.1071 48.7123 -19.2670 0.0000 0.0000 8.5250 3.9867 8.1657 0.5672 7.1250 -0.0000 -0.0000 21.9460 -21.9098 13.1449
-0.7120 17.8708 0.4369 -227.6320 92.2719 -217.1380 0.0000 0.0000 0.0000 -16.2667 -1.7297 -6.4403 0.0419 1.3211 3.6328 -0.0147 6.8678 -9.4338 0.8949 -6.0293 -16.8695 0.0000 0.0000 0.0000 18.8578 13.5659 -10.2944 -0.7139 -5.3997 15.0523 0.1941 -13.4822 -16.6325 -0.6733 5.2472 -14.6149 -0.7019 -1.9322 -7.0377 2.2758 -1.8283 -11.6756 2.7661 -0.4742 -8.2754 -3.0610 -0.3434 -16.7706 6.8876 -1.1768 28.6290 3.0135 0.2699 12.2951 -0.0000 0.0000 0.0000 -73.4313 -30.2415 84.3858 40.0320 -48.0888 -18.4630 -0.0000 -0.0000 9.0172 0.7662 24.4399 0.3170 -7.1250 0.0000 -0.0000 -28.9407 51.9935 -5.3542 -0.0000 0.0000 0.0000 74.4135 34.1357 92.5790 -41.7764 49.0878 -19.7714 0.0000 0.0000 8.1926 4.0255 8.4363 0.5915 7.1250 -0.0000 -0.0000 21.9298 -21.6579 13.2712
-0.7098 17.8699 0.4405 -228.4480 92.1575 -217.9800 0.0000 0.0000 0.0000 -16.2842 -1.7970 -6.3077 0.0385 1.2667 3.4829 -0.0165 6.8659 -9.3851 0.8879 -6.0063 -16.8028 0.0000 0.0000 0.0000 18.8165 13.6923 -10.2180 -0.7203 -5.4234 15.1202 0.2079 -13.6801 -16.7623 -0.6567 5.1834 -14.4324 -0.7960 -1.9406 -7.0419 2.2483 -1.8447 -11.6269 2.7881 -0.4789 -8.2150 -3.0554 -0.3436 -16.7729 6.8738 -1.1743 28.5700 3.0053 0.2682 12.2717 -0.0000 0.0000 0.0000 -73.1444 -30.2146 83.6485 40.8168 -48.5464 -19.0492 -0.0000 -0.0000 8.1244 -0.0171 24.3883 -0.0071 -7.1250 0.0000 -0.0000 -29.6267 51.8175 -5.3657 -0.0000 0.0000 0.0000 74.0909 34.1769 92.0180 -42.4886 49.4771 -20.3112 0.0000 0.0000 8.0723 3.7364 8.5035 0.5533 7.1250 -0.0000 -0.0000 21.7247 -21.5981 13.1592
-0.7085 17.8691 0.4424 -227.9510 92.0206 -217.5090 0.0000 0.0000 0.0000 -16.3498 -1.8274 -6.1087 0.0327 1.1674 3.2095 -0.0249 6.9096 -9.2317 0.9312 -6.1471 -17.2118 0.0000 0.0000 0.0000 18.7026 13.7221 -10.2108 -0.7291 -5.4555 15.2123 0.2072 -13.7400 -16.8723 -0.6385 5.1123 -14.2291 -0.9216 -1.9365 -7.0430 2.2056 -1.8457 -11.5710 2.8117 -0.4748 -8.1488 -3.0662 -0.3554 -16.7613 6.8677 -1.1856 28.4988 3.0001 0.2593 12.2416 0.0000 0.0000 0.0000 -72.8955 -30.1501 82.8052 41.5284 -48.9498 -19.5842 -0.0000 -0.0000 7.1710 -0.5664 23.8224 -0.2288 -7.1250 0.0000 -0.0000 -29.7756 51.2354 -4.9462 0.0000 0.0000 0.0000 73.7583 34.2759 91.3988 -43.0824 49.7937 -20.7636 0.0000 0.0000 7.8612 3.6584 9.0468 0.5760 7.1250 -0.0000 -0.0000 21.5900 -21.0927 13.3347
-0.7068 17.8683 0.4450 -228.7280 91.9375 -218.2860 0.0000 0.0000 0.0000 -16.3332 -1.8499 -5.9431 0.0274 1.0684 2.9371 -0.0319 6.9564 -9.1199 0.9150 -6.0950 -17.0605 0.0000 0.0000 0.0000 18.6668 13.7334 -10.2478 -0.7367 -5.4833 15.2925 0.2217 -13.8514 -16.8515 -0.6770 5.2610 -14.6544 -1.0042 -1.9273 -7.1398 2.1973 -1.8380 -11.4910 2.8443 -0.4696 -8.0017 -3.1244 -0.3963 -16.7771 6.8606 -1.2251 28.4598 3.0001 0.2332 12.2320 -0.0000 -0.0000 0.0000 -72.7439 -30.0375 81.8960 42.2613 -49.3540 -20.1386 -0.0000 -0.0000 6.4152 -1.2573 23.2144 -0.4957 -7.1250 0.0000 -0.0000 -30.0307 50.5970 -4.4942 -0.0000 -0.0000 0.0000 73.3751 34.3837 90.6396 -43.7671 50.1500 -21.2880 0.0000 0.0000 7.5259 3.8208 9.7848 0.6503 7.1250 -0.0000 -0.0000 21.5901 -20.4041 13.7012
-0.7031 17.8685 0.4461 -229.3450 91.8142 -218.8520 0.0000 0.0000 0.0000 -16.3806 -1.9381 -5.8770 0.0241 1.0032 2.7575 -0.0398 7.0163 -9.0015 0.9569 -6.2290 -17.4503 0.0000 0.0000 0.0000 18.5754 13.7055 -10.3326 -0.7420 -5.5027 15.3481 0.2165 -13.8682 -16.9532 -0.6671 5.2235 -14.5470 -1.0820 -1.9247 -7.3076 2.1573 -1.8389 -11.4162 2.8386 -0.4706 -7.8210 -3.1664 -0.4259 -16.7509 6.8830 -1.2611 28.3480 3.0058 0.2124 12.1848 -0.0000 0.0000 0.0000 -72.5378 -29.9009 80.9166 43.1499 -49.8292 -20.8152 -0.0000 -0.0000 5.2869 -2.0570 23.0895 -0.8070 -7.1250 0.0000 -0.0000 -30.6730 50.3631 -4.4186 -0.0000 0.0000 0.0000 72.9964 34.4246 89.8356 -44.5217 50.5320 -21.8689 0.0000 0.0000 7.1355 3.7736 10.5005 0.6887 7.1250 -0.0000 -0.0000 21.4570 -19.7371 13.9537
-0.6979 17.8678 0.4468 -232.2080 91.7230 -221.6540 0.0000 0.0000 0.0000 -16.3674 -2.0672 -5.8733 0.0233 0.9864 2.7113 -0.0412 7.0257 -8.9784 0.9525 -6.2151 -17.4099 0.0000 0.0000 0.0000 18.5583 13.6547 -10.4195 -0.7449 -5.5130 15.3777 0.2221 -13.9362 -16.9874 -0.6867 5.2980 -14.7606 -0.9827 -1.9009 -7.3016 2.0493 -1.8091 -11.4712 2.6702 -0.4654 -7.8933 -3.1230 -0.4551 -16.6701 6.9308 -1.3284 28.3513 3.0060 0.1942 12.1741 0.0000 0.0000 0.0000 -72.2210 -29.5904 79.9300 44.1640 -50.3523 -21.5931 -0.0000 -0.0000 3.7035 -2.8957 22.7388 -1.1201 -7.1250 0.0000 -0.0000 -31.2097 49.9311 -4.1536 0.0000 0.0000 0.0000 72.7596 34.2432 88.9940 -45.4186 50.9719 -22.5635 0.0000 0.0000 6.4083 4.3323 10.9341 0.8233 7.1250 -0.0000 -0.0000 21.7646 -19.3315 14.4025
-0.6945 17.8657 0.4494 -235.8710 91.6603 -225.3030 0.0000 0.0000 0.0000 -16.3169 -2.1793 -5.8402 0.0229 0.9774 2.6867 -0.0428 7.0516 -8.9760 0.9545 -6.2214 -17.4282 0.0000 0.0000 0.0000 18.5941 13.5960 -10.4371 -0.7459 -5.5169 15.3890 0.2275 -13.9870 -16.9961 -0.6943 5.3267 -14.8427 -0.8330 -1.8645 -7.0295 1.9207 -1.7611 -11.6174 2.4615 -0.4509 -8.2231 -3.1251 -0.5094 -16.5962 7.0465 -1.4381 28.4344 3.0373 0.1637 12.2003 0.0000 0.0000 0.0000 -71.9428 -29.0829 78.8854 45.1848 -50.8587 -22.3820 -0.0000 -0.0000 1.9234 -3.7786 22.3239 -1.4370 -7.1250 0.0000 -0.0000 -31.7429 49.4407 -3.8242 0.0000 0.0000 0.0000 72.6128 33.9109 88.1500 -46.4268 51.4486 -23.3494 0.0000 0.0000 5.3383 5.3665 11.1518 1.0409 7.1250 -0.0000 -0.0000 22.4096 -19.1238 15.0183
